<mxfile host="app.diagrams.net" modified="2024-05-29T02:09:20.746Z" agent="Mozilla/5.0 (Windows NT 10.0; Win64; x64) AppleWebKit/537.36 (KHTML, like Gecko) Chrome/125.0.0.0 Safari/537.36" etag="D3BjbY3etgAhJosD2V6F" version="24.4.9" type="github">
  <diagram name="Page-1" id="74e2e168-ea6b-b213-b513-2b3c1d86103e">
    <mxGraphModel dx="993" dy="525" grid="1" gridSize="10" guides="1" tooltips="1" connect="1" arrows="1" fold="1" page="1" pageScale="1" pageWidth="1100" pageHeight="850" background="none" math="0" shadow="0">
      <root>
        <mxCell id="0" />
        <mxCell id="1" parent="0" />
        <mxCell id="t1rCLUD9ff3TvaaRqbfJ-22" value="" style="rounded=1;whiteSpace=wrap;html=1;dashed=1;fillColor=none;" vertex="1" parent="1">
          <mxGeometry x="310" y="40" width="640" height="580" as="geometry" />
        </mxCell>
        <mxCell id="t1rCLUD9ff3TvaaRqbfJ-1" value="就医决策就像消费决策或者任何其他决策一样，受到以下经济学因素的影响" style="rounded=1;whiteSpace=wrap;html=1;" vertex="1" parent="1">
          <mxGeometry x="385" y="60" width="400" height="60" as="geometry" />
        </mxCell>
        <mxCell id="t1rCLUD9ff3TvaaRqbfJ-3" value="信息：对自己健康了解的程度，这个比较具有经济学含义" style="rounded=0;whiteSpace=wrap;html=1;" vertex="1" parent="1">
          <mxGeometry x="390" y="150" width="110" height="80" as="geometry" />
        </mxCell>
        <mxCell id="t1rCLUD9ff3TvaaRqbfJ-5" value="价格：医保待遇" style="rounded=0;whiteSpace=wrap;html=1;" vertex="1" parent="1">
          <mxGeometry x="525" y="150" width="120" height="80" as="geometry" />
        </mxCell>
        <mxCell id="t1rCLUD9ff3TvaaRqbfJ-6" value="主观风险态度：主要是为了减少健康风险愿意多支付的货币化代价" style="rounded=0;whiteSpace=wrap;html=1;" vertex="1" parent="1">
          <mxGeometry x="670" y="150" width="120" height="80" as="geometry" />
        </mxCell>
        <mxCell id="t1rCLUD9ff3TvaaRqbfJ-7" value="意识到有就医需求" style="ellipse;whiteSpace=wrap;html=1;" vertex="1" parent="1">
          <mxGeometry x="820" y="170" width="120" height="80" as="geometry" />
        </mxCell>
        <mxCell id="t1rCLUD9ff3TvaaRqbfJ-8" value="医院选择" style="ellipse;whiteSpace=wrap;html=1;" vertex="1" parent="1">
          <mxGeometry x="820" y="270" width="120" height="80" as="geometry" />
        </mxCell>
        <mxCell id="t1rCLUD9ff3TvaaRqbfJ-9" value="医疗支出选择" style="ellipse;whiteSpace=wrap;html=1;" vertex="1" parent="1">
          <mxGeometry x="820" y="370" width="120" height="80" as="geometry" />
        </mxCell>
        <mxCell id="t1rCLUD9ff3TvaaRqbfJ-10" value="" style="endArrow=none;dashed=1;html=1;dashPattern=1 3;strokeWidth=2;rounded=0;exitX=0.063;exitY=0.569;exitDx=0;exitDy=0;exitPerimeter=0;" edge="1" parent="1" source="t1rCLUD9ff3TvaaRqbfJ-22">
          <mxGeometry width="50" height="50" relative="1" as="geometry">
            <mxPoint x="400" y="370" as="sourcePoint" />
            <mxPoint x="770" y="370" as="targetPoint" />
          </mxGeometry>
        </mxCell>
        <mxCell id="t1rCLUD9ff3TvaaRqbfJ-12" value="静态问题（ 一期 ）" style="rounded=1;whiteSpace=wrap;html=1;fillColor=#fff2cc;strokeColor=#d6b656;" vertex="1" parent="1">
          <mxGeometry x="340" y="150" width="20" height="190" as="geometry" />
        </mxCell>
        <mxCell id="t1rCLUD9ff3TvaaRqbfJ-13" value="动态问题（ 跨期 ）" style="rounded=1;whiteSpace=wrap;html=1;fillColor=#fff2cc;strokeColor=#d6b656;" vertex="1" parent="1">
          <mxGeometry x="340" y="380" width="20" height="190" as="geometry" />
        </mxCell>
        <mxCell id="t1rCLUD9ff3TvaaRqbfJ-14" value="健康习惯，健康管理" style="rounded=0;whiteSpace=wrap;html=1;" vertex="1" parent="1">
          <mxGeometry x="600" y="400" width="180" height="80" as="geometry" />
        </mxCell>
        <mxCell id="t1rCLUD9ff3TvaaRqbfJ-15" value="" style="endArrow=classic;html=1;rounded=0;edgeStyle=orthogonalEdgeStyle;entryX=0.5;entryY=0;entryDx=0;entryDy=0;" edge="1" parent="1" target="t1rCLUD9ff3TvaaRqbfJ-17">
          <mxGeometry width="50" height="50" relative="1" as="geometry">
            <mxPoint x="780" y="90" as="sourcePoint" />
            <mxPoint x="880" y="120" as="targetPoint" />
          </mxGeometry>
        </mxCell>
        <mxCell id="t1rCLUD9ff3TvaaRqbfJ-17" value="" style="rounded=1;whiteSpace=wrap;html=1;dashed=1;fillColor=none;" vertex="1" parent="1">
          <mxGeometry x="815" y="145" width="130" height="415" as="geometry" />
        </mxCell>
        <mxCell id="t1rCLUD9ff3TvaaRqbfJ-19" value="预防性健康支出；全生命周期的医疗支出；健康素养的经验性积累" style="rounded=0;whiteSpace=wrap;html=1;" vertex="1" parent="1">
          <mxGeometry x="400" y="400" width="165" height="80" as="geometry" />
        </mxCell>
        <mxCell id="t1rCLUD9ff3TvaaRqbfJ-25" value="" style="edgeStyle=orthogonalEdgeStyle;rounded=0;orthogonalLoop=1;jettySize=auto;html=1;" edge="1" parent="1" source="t1rCLUD9ff3TvaaRqbfJ-20" target="t1rCLUD9ff3TvaaRqbfJ-22">
          <mxGeometry relative="1" as="geometry" />
        </mxCell>
        <mxCell id="t1rCLUD9ff3TvaaRqbfJ-20" value="健康素养" style="rounded=1;whiteSpace=wrap;html=1;" vertex="1" parent="1">
          <mxGeometry x="100" y="300" width="160" height="60" as="geometry" />
        </mxCell>
        <mxCell id="t1rCLUD9ff3TvaaRqbfJ-27" value="&lt;br&gt;&lt;span style=&quot;color: rgb(0, 0, 0); font-family: Helvetica; font-size: 12px; font-style: normal; font-variant-ligatures: normal; font-variant-caps: normal; font-weight: 400; letter-spacing: normal; orphans: 2; text-align: center; text-indent: 0px; text-transform: none; widows: 2; word-spacing: 0px; -webkit-text-stroke-width: 0px; white-space: normal; background-color: rgb(251, 251, 251); text-decoration-thickness: initial; text-decoration-style: initial; text-decoration-color: initial; display: inline !important; float: none;&quot;&gt;选题0：健康素养：如何影响了解自己健康行为的能力，包括使用数字健康产品&lt;/span&gt;&lt;div&gt;&lt;br&gt;&lt;/div&gt;" style="rounded=1;whiteSpace=wrap;html=1;" vertex="1" parent="1">
          <mxGeometry x="390" y="270" width="110" height="80" as="geometry" />
        </mxCell>
        <mxCell id="t1rCLUD9ff3TvaaRqbfJ-28" value="选题1：健康素养如何影响患者的风险态度，并通过这个渠道影响决策" style="rounded=1;whiteSpace=wrap;html=1;" vertex="1" parent="1">
          <mxGeometry x="530" y="270" width="250" height="80" as="geometry" />
        </mxCell>
        <mxCell id="t1rCLUD9ff3TvaaRqbfJ-29" value="选题2：健康素养如何在动态上积累，并且影响两类医疗支出" style="rounded=1;whiteSpace=wrap;html=1;" vertex="1" parent="1">
          <mxGeometry x="395" y="500" width="175" height="80" as="geometry" />
        </mxCell>
        <mxCell id="t1rCLUD9ff3TvaaRqbfJ-30" value="选题3：健康素养如何影响健康产品的使用，以老年人群体为例" style="rounded=1;whiteSpace=wrap;html=1;" vertex="1" parent="1">
          <mxGeometry x="600" y="500" width="175" height="80" as="geometry" />
        </mxCell>
        <mxCell id="t1rCLUD9ff3TvaaRqbfJ-32" value="" style="edgeStyle=orthogonalEdgeStyle;rounded=0;orthogonalLoop=1;jettySize=auto;html=1;" edge="1" parent="1" source="t1rCLUD9ff3TvaaRqbfJ-31" target="t1rCLUD9ff3TvaaRqbfJ-20">
          <mxGeometry relative="1" as="geometry" />
        </mxCell>
        <mxCell id="t1rCLUD9ff3TvaaRqbfJ-31" value="健康素养的经济影响因素" style="rounded=1;whiteSpace=wrap;html=1;dashed=1;fillColor=none;" vertex="1" parent="1">
          <mxGeometry x="62.5" y="410" width="235" height="140" as="geometry" />
        </mxCell>
      </root>
    </mxGraphModel>
  </diagram>
</mxfile>
